<mxfile host="app.diagrams.net" modified="2023-03-14T18:51:03.879Z" agent="5.0 (Windows)" etag="dfnEe3-aJu9MCCAkJLPH" version="21.0.6" type="github">
  <diagram name="Page-1" id="e3a06f82-3646-2815-327d-82caf3d4e204">
    <mxGraphModel dx="574" dy="302" grid="1" gridSize="10" guides="1" tooltips="1" connect="1" arrows="1" fold="1" page="1" pageScale="1.5" pageWidth="1169" pageHeight="826" background="none" math="0" shadow="0">
      <root>
        <mxCell id="0" style=";html=1;" />
        <mxCell id="1" style=";html=1;" parent="0" />
        <mxCell id="6a7d8f32e03d9370-62" value="&lt;div&gt;Schéma Réseau du contexte&lt;/div&gt;" style="text;strokeColor=none;fillColor=none;html=1;fontSize=24;fontStyle=1;verticalAlign=middle;align=center;" parent="1" vertex="1">
          <mxGeometry x="499" y="30" width="861" height="40" as="geometry" />
        </mxCell>
        <mxCell id="WEffmVSrsMeL90ccFYZ0-1" value="" style="rounded=0;whiteSpace=wrap;html=1;fillColor=#d5e8d4;strokeColor=#82b366;" vertex="1" parent="1">
          <mxGeometry x="990" y="90" width="290" height="320" as="geometry" />
        </mxCell>
        <mxCell id="WEffmVSrsMeL90ccFYZ0-2" value="" style="whiteSpace=wrap;html=1;aspect=fixed;" vertex="1" parent="1">
          <mxGeometry x="620" y="190" width="220" height="220" as="geometry" />
        </mxCell>
        <mxCell id="WEffmVSrsMeL90ccFYZ0-3" value="eth0" style="rhombus;whiteSpace=wrap;html=1;fillColor=#f8cecc;strokeColor=#b85450;" vertex="1" parent="1">
          <mxGeometry x="950" y="100" width="80" height="80" as="geometry" />
        </mxCell>
        <mxCell id="WEffmVSrsMeL90ccFYZ0-4" value="eth1" style="rhombus;whiteSpace=wrap;html=1;fillColor=#f8cecc;strokeColor=#b85450;" vertex="1" parent="1">
          <mxGeometry x="950" y="300" width="80" height="80" as="geometry" />
        </mxCell>
        <mxCell id="WEffmVSrsMeL90ccFYZ0-5" value="&lt;div&gt;Internet&lt;/div&gt;" style="ellipse;shape=cloud;whiteSpace=wrap;html=1;fillColor=#fff2cc;strokeColor=#d6b656;" vertex="1" parent="1">
          <mxGeometry x="750" y="97.5" width="140" height="85" as="geometry" />
        </mxCell>
        <mxCell id="WEffmVSrsMeL90ccFYZ0-6" value="" style="endArrow=none;html=1;rounded=0;entryX=0;entryY=0.5;entryDx=0;entryDy=0;exitX=0.875;exitY=0.5;exitDx=0;exitDy=0;exitPerimeter=0;" edge="1" parent="1" source="WEffmVSrsMeL90ccFYZ0-5" target="WEffmVSrsMeL90ccFYZ0-3">
          <mxGeometry width="50" height="50" relative="1" as="geometry">
            <mxPoint x="876.75" y="175" as="sourcePoint" />
            <mxPoint x="926.75" y="125" as="targetPoint" />
          </mxGeometry>
        </mxCell>
        <mxCell id="WEffmVSrsMeL90ccFYZ0-8" value="vmbr0" style="rhombus;whiteSpace=wrap;html=1;fillColor=#f8cecc;strokeColor=#b85450;" vertex="1" parent="1">
          <mxGeometry x="800" y="300" width="80" height="80" as="geometry" />
        </mxCell>
        <mxCell id="WEffmVSrsMeL90ccFYZ0-9" value="" style="endArrow=none;html=1;rounded=0;entryX=0;entryY=0.5;entryDx=0;entryDy=0;exitX=1;exitY=0.5;exitDx=0;exitDy=0;" edge="1" parent="1" source="WEffmVSrsMeL90ccFYZ0-8" target="WEffmVSrsMeL90ccFYZ0-4">
          <mxGeometry width="50" height="50" relative="1" as="geometry">
            <mxPoint x="860" y="310" as="sourcePoint" />
            <mxPoint x="910" y="260" as="targetPoint" />
          </mxGeometry>
        </mxCell>
        <mxCell id="WEffmVSrsMeL90ccFYZ0-10" value="Poste Z210" style="text;html=1;strokeColor=none;fillColor=none;align=center;verticalAlign=middle;whiteSpace=wrap;rounded=0;" vertex="1" parent="1">
          <mxGeometry x="1087.5" y="90" width="95" height="30" as="geometry" />
        </mxCell>
        <mxCell id="WEffmVSrsMeL90ccFYZ0-11" value="PfSense" style="aspect=fixed;perimeter=ellipsePerimeter;html=1;align=left;shadow=0;dashed=0;spacingTop=3;image;image=img/lib/active_directory/generic_server.svg;labelPosition=right;verticalLabelPosition=middle;verticalAlign=middle;" vertex="1" parent="1">
          <mxGeometry x="1121" y="132.5" width="32.2" height="57.5" as="geometry" />
        </mxCell>
        <mxCell id="WEffmVSrsMeL90ccFYZ0-13" value="" style="endArrow=none;html=1;rounded=0;entryX=0;entryY=0.5;entryDx=0;entryDy=0;exitX=1;exitY=0.5;exitDx=0;exitDy=0;" edge="1" parent="1" source="WEffmVSrsMeL90ccFYZ0-3" target="WEffmVSrsMeL90ccFYZ0-11">
          <mxGeometry width="50" height="50" relative="1" as="geometry">
            <mxPoint x="1120" y="260" as="sourcePoint" />
            <mxPoint x="1170" y="210" as="targetPoint" />
            <Array as="points">
              <mxPoint x="1080" y="140" />
              <mxPoint x="1080" y="160" />
            </Array>
          </mxGeometry>
        </mxCell>
        <mxCell id="WEffmVSrsMeL90ccFYZ0-14" value="wan: 192.168.70.120 /17" style="text;html=1;strokeColor=none;fillColor=none;align=center;verticalAlign=middle;whiteSpace=wrap;rounded=0;" vertex="1" parent="1">
          <mxGeometry x="1003.2" y="190" width="150" height="30" as="geometry" />
        </mxCell>
      </root>
    </mxGraphModel>
  </diagram>
</mxfile>
